<?xml version="1.0" standalone="no"?>
<!DOCTYPE svg PUBLIC "-//W3C//DTD SVG 20010904//EN"
 "http://www.w3.org/TR/2001/REC-SVG-20010904/DTD/svg10.dtd">
<svg version="1.0" xmlns="http://www.w3.org/2000/svg"
 width="512.000000pt" height="512.000000pt" viewBox="0 0 512.000000 512.000000"
 preserveAspectRatio="xMidYMid meet">
<metadata>
Created by potrace 1.11, written by Peter Selinger 2001-2013
</metadata>
<g transform="translate(0.000000,512.000000) scale(0.100000,-0.100000)"
fill="#000000" stroke="none">
<path d="M2367 4269 c-340 -39 -687 -193 -939 -416 -512 -455 -708 -1145 -511
-1803 31 -104 131 -329 181 -405 l20 -30 -138 -390 c-76 -214 -137 -391 -136
-392 1 -1 214 38 474 86 l473 89 107 -44 c209 -84 375 -121 592 -131 481 -21
950 164 1292 509 459 464 617 1163 401 1781 -217 626 -776 1071 -1438 1147
-102 11 -277 11 -378 -1z m273 -1003 l0 -674 440 -253 c243 -139 447 -257 455
-263 14 -11 10 -20 -71 -153 -14 -22 -21 -18 -516 266 l-503 288 -3 732 -2
731 100 0 100 0 0 -674z"/>
</g>
</svg>
